<?xml version="1.0" encoding="UTF-8" standalone="no"?>
<svg
   xmlns:dc="http://purl.org/dc/elements/1.1/"
   xmlns:cc="http://creativecommons.org/ns#"
   xmlns:rdf="http://www.w3.org/1999/02/22-rdf-syntax-ns#"
   xmlns:svg="http://www.w3.org/2000/svg"
   xmlns="http://www.w3.org/2000/svg"
   xmlns:xlink="http://www.w3.org/1999/xlink"
   xmlns:sodipodi="http://sodipodi.sourceforge.net/DTD/sodipodi-0.dtd"
   xmlns:inkscape="http://www.inkscape.org/namespaces/inkscape"
   id="Calque_1"
   enable-background="new 0 0 309.231 315.385"
   sodipodi:docname="logo (copy).svg"
   xml:space="preserve"
   viewBox="0 0 309.231 315.385"
   version="1.1"
   y="0px"
   x="0px"
   inkscape:version="0.92.3 (2405546, 2018-03-11)"
   inkscape:export-filename="/home/bsquared/Documents/GLab/globatio/icons/logo.png"
   inkscape:export-xdpi="136.097"
   inkscape:export-ydpi="136.097"><defs
   id="defs36"><linearGradient
     inkscape:collect="always"
     id="linearGradient874"><stop
       style="stop-color:#f77c1a;stop-opacity:1;"
       offset="0"
       id="stop870" /><stop
       style="stop-color:#f77c1a;stop-opacity:0;"
       offset="1"
       id="stop872" /></linearGradient><linearGradient
     inkscape:collect="always"
     id="linearGradient855"><stop
       style="stop-color:#ffd900;stop-opacity:1;"
       offset="0"
       id="stop851" /><stop
       style="stop-color:#ffd900;stop-opacity:0;"
       offset="1"
       id="stop853" /></linearGradient><linearGradient
     inkscape:collect="always"
     xlink:href="#linearGradient855"
     id="linearGradient861"
     x1="9.25"
     y1="156.045"
     x2="301.33286"
     y2="156.045"
     gradientUnits="userSpaceOnUse" /><linearGradient
     inkscape:collect="always"
     xlink:href="#linearGradient874"
     id="linearGradient876"
     x1="7.1971357"
     y1="156.34409"
     x2="303.88584"
     y2="156.34409"
     gradientUnits="userSpaceOnUse" /></defs><sodipodi:namedview
   id="namedview56"
   bordercolor="#666666"
   inkscape:pageshadow="2"
   guidetolerance="10"
   pagecolor="#ffffff"
   gridtolerance="10"
   inkscape:window-maximized="1"
   inkscape:zoom="1.25106"
   objecttolerance="10"
   borderopacity="1"
   inkscape:current-layer="g3"
   inkscape:cx="20.314659"
   inkscape:cy="151.89843"
   inkscape:window-y="27"
   inkscape:window-x="55"
   inkscape:window-width="1311"
   showgrid="false"
   inkscape:pageopacity="0"
   inkscape:window-height="713" />
<g
   id="g3"
   inkscape:export-xdpi="136.097"
   inkscape:export-ydpi="136.097"
   style="fill:#ffff00;fill-opacity:0.70558375;stroke:#f77c1a;stroke-width:5.10572844;stroke-opacity:1;stroke-miterlimit:4;stroke-dasharray:none"
   transform="matrix(1,0,0,0.9590132,0,6.4110976)">
	<path
   id="path5"
   d="m 300.52,156 c 0,80.737 -65.064,146.06 -145.37,146.06 C 74.861,302.06 9.75,236.734 9.75,156 9.75,75.388 74.86,10.03 155.15,10.03 235.45,10.032 300.52,75.386 300.52,156 Z"
   style="fill:#ffff00;fill-opacity:0.70558375;stroke:#f77c1a;stroke-width:5.10572844;stroke-opacity:1;stroke-miterlimit:4;stroke-dasharray:none"
   inkscape:connector-curvature="0" />
	<linearGradient
   id="SVGID_1_"
   y2="145.46001"
   gradientUnits="userSpaceOnUse"
   x2="301.29001"
   y1="145.46001"
   x1="129.22"
   style="stroke:url(#linearGradient876)">
		<stop
   id="stop8"
   style="stop-color:#609B2E;fill-opacity:1;fill:url(#linearGradient861);stroke:url(#linearGradient876)"
   offset="0" />
		<stop
   id="stop10"
   style="stop-color:#AEC818;fill-opacity:1;fill:url(#linearGradient861);stroke:url(#linearGradient876)"
   offset=".6129" />
	</linearGradient>
	<path
   id="path12"
   d="m 258.18,53.013 c 0,0 -20.436,-6.708 -25.05,-11.933 l -17.145,-1.337 -3.882,4.017 1.929,4.623 h 3.277 l 0.604,6.274 -5.523,-3.287 -3.711,6.577 -1.647,-0.607 h -2.24 c 0,0 -0.617,-0.738 -1.337,-0.445 -0.604,0.445 -1.337,-1.941 -1.337,-1.941 l -3.29,0.604 -1.336,1.337 -2.24,-1.645 h -3.589 l -0.727,2.09 2.356,0.299 -2.069,2.539 0.751,1.339 c -2.991,0.314 -7.898,-1.944 -7.898,-1.944 0,0 -1.349,-0.592 -3.302,0 -2.075,0.604 -4.657,4.321 -4.657,4.321 l -3.381,3.595 3.729,3.601 h 2.533 l 3.406,1.028 0.616,1.34 6.567,-0.312 5.371,-4.315 5.212,-1.032 5.225,2.075 c 0,0 5.652,-1.043 4.914,-0.439 -0.593,0.727 2.979,5.664 2.979,5.664 l 2.393,5.652 2.233,3.29 0.452,3.589 1.63,-0.293 5.523,0.604 -1.923,-2.997 -3.284,-2.24 -2.398,-6.256 -1.642,-4.022 2.393,-0.912 1.94,3.585 2.222,3.284 5.372,2.692 v 3.57 l 1.343,2.1 5.225,1.917 4.626,-2.387 1.349,-2.234 -1.953,-2.68 h 4.926 l 4.004,4.34 6.586,3.274 -0.452,3.58 4.017,4.022 -1.642,1.648 -8.197,-3.583 -6.714,-3.738 -12.061,0.745 0.293,5.231 7.611,4.932 8.185,3.427 6.567,3.894 -0.592,4.904 -2.387,4.629 -3.876,-2.539 -8.637,-8.957 -1.959,0.314 -7.294,-5.673 h -3.283 l -1.05,4.022 -2.229,-0.308 -0.293,-2.667 -13.27,-9.84 2.979,-3.403 4.021,-1.221 -2.38,-3.437 h -2.252 l -5.646,-3.863 -5.219,1.336 -6.879,-5.667 -4.303,0.281 -4.944,-0.58 -5.041,-1.954 -6.269,0.604 -6.557,4.624 -6.259,1.031 -2.982,1.953 -3.583,1.044 -1.965,2.533 -5.643,-0.299 -6.259,5.667 -0.613,3.274 -1.328,5.255 -5.963,6.256 -0.745,2.97 v 4.632 l 2.393,5.973 2.981,5.96 6.564,11.941 2.674,1.639 4.922,0.314 6.262,4.907 10.883,0.751 1.634,2.551 2.374,-0.299 4.206,4.929 3.723,-0.604 1.19,8.194 -2.887,4.028 -3.382,2.987 1.355,8.219 1.031,13.27 c 0,0 -1.031,4.205 -1.636,4.94 -0.751,0.604 -5.377,3.567 -5.377,3.567 l -6.554,19.534 2.035,9.854 -1.288,8.673 -4.022,5.213 -0.305,5.071 -1.041,3.278 4.019,1.221 4.272,-1.972 h 6.294 l 9.253,3 6.867,-3.589 8.947,-5.359 5.213,-0.604 0.744,-7.914 2.558,-2.972 5.938,-0.751 4.346,-3.58 h 3.577 l 12.812,-11.493 c 0,0 1.037,-3.747 1.037,-5.065 0,-1.209 1.361,-6.866 1.361,-6.866 l 4.901,-7.321 4.919,-0.299 5.353,-2.362 10.163,-7.48 4.321,-7.327 1.647,-2.96 -3.576,-1.355 -1.667,1.923 -4.754,-3.869 -0.293,1.343 -0.617,-6.4 c 0,0 1.648,-1.639 -0.727,-3.286 -2.252,-1.639 -3.881,-6.58 -3.881,-6.58 l -1.643,-4.614 -0.604,-7.315 0.604,-2.841 -0.299,-5.078 0.299,-10.144 3.876,0.897 -1.178,10.602 2.233,4.907 v 8.072 l 0.592,5.508 2.375,7.017 5.683,7.189 2.532,-1.959 h 4.022 l 13.123,-14.481 0.744,-4.327 -2.68,-3.702 -4.034,-5.237 h -1.196 l -2.68,1.92 -0.616,-4.596 -2.063,-3.589 c 0,0 -1.947,1.032 -1.648,-2.249 0.305,-3.421 0.751,-5.368 0.751,-5.368 l 2.954,-1.651 2.246,5.963 1.349,4.624 3.589,2.994 4.022,3.592 5.811,5.667 2.1,6.857 1.33,6.723 3.271,1.196 -0.274,10.293 -1.067,16.55 2.99,1.648 c 0.06,0.01 24.84,-69.92 -38.26,-139.06 z"
   style="fill:#ff6600;fill-opacity:0.70558375;stroke:#f77c1a;stroke-width:5.10572844;stroke-opacity:1;stroke-miterlimit:4;stroke-dasharray:none"
   inkscape:connector-curvature="0" />
	<linearGradient
   id="SVGID_2_"
   y2="19.639999"
   gradientUnits="userSpaceOnUse"
   x2="227.66"
   y1="19.639999"
   x1="159.07001"
   style="stroke:url(#linearGradient876)">
		<stop
   id="stop15"
   style="stop-color:#609B2E;fill-opacity:1;fill:url(#linearGradient861);stroke:url(#linearGradient876)"
   offset="0" />
		<stop
   id="stop17"
   style="stop-color:#AEC818;fill-opacity:1;fill:url(#linearGradient861);stroke:url(#linearGradient876)"
   offset=".6129" />
	</linearGradient>
	<path
   id="path19"
   d="m 162.11,10.288 c 28.572,-2.191 65.547,18.863 65.547,18.863 h -9.229 l -17.175,-8.273 -3.51,3.412 -11.914,0.964 -4.389,-2.185 -14.955,-6.696 -2.188,2.173 -0.839,4.038 -4.388,-1.349 0.482,-6.204 2.55,-4.743 z"
   style="fill:#ff6600;fill-opacity:0.70558375;stroke:#f77c1a;stroke-width:5.10572844;stroke-opacity:1;stroke-miterlimit:4;stroke-dasharray:none"
   inkscape:connector-curvature="0" />
	<linearGradient
   id="SVGID_3_"
   y2="46.198002"
   gradientUnits="userSpaceOnUse"
   x2="203.46001"
   y1="46.198002"
   x1="192.53"
   style="stroke:url(#linearGradient876)">
		<stop
   id="stop22"
   style="stop-color:#609B2E;fill-opacity:1;fill:url(#linearGradient861);stroke:url(#linearGradient876)"
   offset="0" />
		<stop
   id="stop24"
   style="stop-color:#AEC818;fill-opacity:1;fill:url(#linearGradient861);stroke:url(#linearGradient876)"
   offset=".6129" />
	</linearGradient>
	<polygon
   id="polygon26"
   points="197.75,45.454 193.85,49.842 192.53,53.013 203.46,52.519 202.12,48.124 200.78,44.969 199.94,40.22 197.24,39.384 "
   style="fill:#ffff00;fill-opacity:0.70558375;stroke:#f77c1a;stroke-width:5.10572844;stroke-opacity:1;stroke-miterlimit:4;stroke-dasharray:none" />
	<linearGradient
   id="SVGID_4_"
   y2="237.98"
   gradientUnits="userSpaceOnUse"
   x2="242.13"
   y1="237.98"
   x1="211.37"
   style="stroke:url(#linearGradient876)">
		<stop
   id="stop29"
   style="stop-color:#609B2E;fill-opacity:1;fill:url(#linearGradient861);stroke:url(#linearGradient876)"
   offset="0" />
		<stop
   id="stop31"
   style="stop-color:#AEC818;fill-opacity:1;fill:url(#linearGradient861);stroke:url(#linearGradient876)"
   offset=".6129" />
	</linearGradient>
	<path
   id="path33"
   d="m 217.08,241.45 4.364,-3.895 1.343,-3.527 4.034,-3.04 7.397,-0.497 6.562,-5.228 1.343,3.534 -3.876,3.879 -3.186,0.481 -5.2,5.731 -9.748,10.94 -8.746,0.867 v -3.89 l 2.673,-3.033 c -0.836,-1.843 -0.836,-1.343 -0.836,-1.843 v 0.5 c 0,0 3.91,-0.01 3.91,-0.98 z"
   style="fill:#ffff00;fill-opacity:0.70558375;stroke:#f77c1a;stroke-width:5.10572844;stroke-opacity:1;stroke-miterlimit:4;stroke-dasharray:none"
   inkscape:connector-curvature="0" />
	<linearGradient
   id="SVGID_5_"
   y2="154.28999"
   gradientUnits="userSpaceOnUse"
   x2="73.802002"
   y1="154.28999"
   x1="10.722"
   style="stroke:url(#linearGradient876)">
		<stop
   id="stop36"
   style="stop-color:#609B2E;fill-opacity:1;fill:url(#linearGradient861);stroke:url(#linearGradient876)"
   offset="0" />
		<stop
   id="stop38"
   style="stop-color:#AEC818;fill-opacity:1;fill:url(#linearGradient861);stroke:url(#linearGradient876)"
   offset=".6129" />
	</linearGradient>
	<path
   id="path40"
   d="m 31.999,234.51 -2.673,-18.991 -1.694,-3.033 -1.349,-4.383 0.852,-6.226 3.524,-2.185 -0.375,-7.557 4.752,-3.533 v -4.85 l 11.432,-14.987 4.367,1.33 1.834,-2.173 11.877,-22.049 6.616,-1.327 2.64,-3.04 -0.455,-3.046 -4.019,-7.544 -5.716,-3.54 v -8.386 l -8.249,-4.401 0.345,-10.943 1.834,-3.516 -1.834,-3.043 -4.876,-2.701 -1.181,-4.855 0.839,-8.414 -5.375,-7.049 -6.896,2.686 h -5.713 c 0,0 -16.803,29.932 -20.328,51.496 -3.537,21.655 0.485,1.819 0.485,1.819 l 3.04,11.932 2.191,11.444 -0.357,10.104 4.379,7.901 -2.191,7.91 -0.494,13.65 2.686,7.535 1.693,8.765 1.337,8.051 2.686,4.363"
   style="fill:#ff6600;fill-opacity:0.70558375;stroke:#f77c1a;stroke-width:5.10572844;stroke-opacity:1;stroke-miterlimit:4;stroke-dasharray:none"
   inkscape:connector-curvature="0" />
	<linearGradient
   id="SVGID_6_"
   y2="25.218"
   gradientUnits="userSpaceOnUse"
   x2="145.47"
   y1="25.218"
   x1="68.485001"
   style="stroke:url(#linearGradient876)">
		<stop
   id="stop43"
   style="stop-color:#609B2E;fill-opacity:1;fill:url(#linearGradient861);stroke:url(#linearGradient876)"
   offset="0" />
		<stop
   id="stop45"
   style="stop-color:#AEC818;fill-opacity:1;fill:url(#linearGradient861);stroke:url(#linearGradient876)"
   offset=".6129" />
	</linearGradient>
	<path
   id="path47"
   d="m 145.47,11.137 -2.191,3.894 -6.576,0.479 -4.01,7.56 c 0,0 -6.213,7.062 -5.212,4.724 0.842,-2.176 -1.001,-2.539 -1.001,-3.888 0,-1.325 -6.961,-1.325 -6.961,-1.325 l -3.5,4.022 -14.929,1.193 c 0,0 -4.428,1.355 -5.719,2.334 l -1.346,0.842 h -1.834 c -2.188,0.366 -2.188,0.366 -2.188,0.366 l -2.179,2.194 -1.349,1.825 -0.845,2.193 c -1.691,1.834 -1.691,1.834 -1.691,1.834 l -7.553,-1.355 h -7.901 c 0.003,0 39.595,-28.736 76.985,-26.892 z"
   style="fill:#ff6600;fill-opacity:0.70558375;stroke:#f77c1a;stroke-width:5.10572844;stroke-opacity:1;stroke-miterlimit:4;stroke-dasharray:none"
   inkscape:connector-curvature="0" />
	<linearGradient
   id="SVGID_7_"
   y2="289.10999"
   gradientUnits="userSpaceOnUse"
   x2="123.94"
   y1="289.10999"
   x1="76.877998"
   style="stroke:url(#linearGradient876)">
		<stop
   id="stop50"
   style="stop-color:#609B2E;fill-opacity:1;fill:url(#linearGradient861);stroke:url(#linearGradient876)"
   offset="0" />
		<stop
   id="stop52"
   style="stop-color:#AEC818;fill-opacity:1;fill:url(#linearGradient861);stroke:url(#linearGradient876)"
   offset=".6129" />
	</linearGradient>
	<path
   id="path54"
   d="m 76.878,279.43 40.863,12.787 6.201,6.57 c 0,-0.01 -29.081,-6.58 -47.062,-19.36 z"
   style="fill:#ffff00;fill-opacity:0.70558375;stroke:#f77c1a;stroke-width:5.10572844;stroke-opacity:1;stroke-miterlimit:4;stroke-dasharray:none"
   inkscape:connector-curvature="0" />
</g>
<metadata
   id="metadata33"><rdf:RDF><cc:Work><dc:format>image/svg+xml</dc:format><dc:type
         rdf:resource="http://purl.org/dc/dcmitype/StillImage" /><cc:license
         rdf:resource="http://creativecommons.org/publicdomain/zero/1.0/" /><dc:publisher><cc:Agent
           rdf:about="http://openclipart.org/"><dc:title>Openclipart</dc:title></cc:Agent></dc:publisher><dc:title></dc:title><dc:date>2012-03-07T09:14:09</dc:date><dc:description /><dc:source>https://openclipart.org/detail/168753/terre-by-presquesage</dc:source><dc:creator><cc:Agent><dc:title>presquesage</dc:title></cc:Agent></dc:creator><dc:subject><rdf:Bag><rdf:li>earth</rdf:li><rdf:li>globe</rdf:li><rdf:li>planet</rdf:li><rdf:li>the Earth</rdf:li></rdf:Bag></dc:subject></cc:Work><cc:License
       rdf:about="http://creativecommons.org/publicdomain/zero/1.0/"><cc:permits
         rdf:resource="http://creativecommons.org/ns#Reproduction" /><cc:permits
         rdf:resource="http://creativecommons.org/ns#Distribution" /><cc:permits
         rdf:resource="http://creativecommons.org/ns#DerivativeWorks" /></cc:License></rdf:RDF></metadata></svg>